PathFileType	4	(X/Y/Z)
DataRate	CameraRate	NumFrames	NumMarkers	Units	OrigDataRate	OrigDataStartFrame	OrigNumFrames	
  100.0	  100.0	    6	     56	     mm	  100.0	      278	    317
Frame#	Time	LASI			RASI			LPSI			RPSI			RTH1			RTH2			RTH3			RLFC			RMFC			LTH1			LTH2			LTH3			LLFC			LMFC			RTB1			RTB2			RTB3			RLMAL			RMMAL			LTB1			LTB2			LTB3			LMMAL			LLMAL			RCAL			RTOE			RMT5			LCAL			LTOE			LMT5			LACR			RACR			CLAV			C7			LASH			LPSH			RASH			RPSH			RUA1			RUA2			RUA3			RLEL			RMEL			LUA1			LUA2			LUA3			LLEL			LMEL			RFAsuperior			RFAradius			RFAulna			LFAsuperior			LFAradius			LFAulna			RHJC			LHJC			
		X1	Y1	Z1	X2	Y2	Z2	X3	Y3	Z3	X4	Y4	Z4	X5	Y5	Z5	X6	Y6	Z6	X7	Y7	Z7	X8	Y8	Z8	X9	Y9	Z9	X10	Y10	Z10	X11	Y11	Z11	X12	Y12	Z12	X13	Y13	Z13	X14	Y14	Z14	X15	Y15	Z15	X16	Y16	Z16	X17	Y17	Z17	X18	Y18	Z18	X19	Y19	Z19	X20	Y20	Z20	X21	Y21	Z21	X22	Y22	Z22	X23	Y23	Z23	X24	Y24	Z24	X25	Y25	Z25	X26	Y26	Z26	X27	Y27	Z27	X28	Y28	Z28	X29	Y29	Z29	X30	Y30	Z30	X31	Y31	Z31	X32	Y32	Z32	X33	Y33	Z33	X34	Y34	Z34	X35	Y35	Z35	X36	Y36	Z36	X37	Y37	Z37	X38	Y38	Z38	X39	Y39	Z39	X40	Y40	Z40	X41	Y41	Z41	X42	Y42	Z42	X43	Y43	Z43	X44	Y44	Z44	X45	Y45	Z45	X46	Y46	Z46	X47	Y47	Z47	X48	Y48	Z48	X49	Y49	Z49	X50	Y50	Z50	X51	Y51	Z51	X52	Y52	Z52	X53	Y53	Z53	X54	Y54	Z54	X55	Y55	Z55	X56	Y56	Z56	

350	3.50000	770.77225	1032.00832	-410.18860	512.03639	1033.74882	-429.08345	702.61466	1086.77313	-585.62179	608.36908	1084.96437	-596.53913	443.30232	871.36642	-496.35455	434.10518	771.00118	-466.55567	437.63937	637.80997	-540.23120	431.74784	520.33991	-520.62620	548.28970	511.96546	-493.31365	842.21638	896.88244	-508.06847	851.27597	766.79182	-457.70940	846.61120	652.81900	-544.11329	850.90601	492.34576	-548.51830	736.10935	474.72826	-526.56626	452.43047	368.92723	-490.26134	402.74990	276.98078	-550.86473	448.64063	193.99271	-519.14488	399.88216	122.68994	-578.08649	486.94239	128.60578	-540.88343	830.07235	364.56457	-509.81612	871.54389	313.01839	-558.50919	835.92969	226.30028	-527.98239	789.32582	133.89140	-542.52168	874.50286	127.30105	-579.34343	455.28282	104.39316	-642.15323	422.97611	78.37444	-407.93321	351.91002	58.82622	-437.36559	803.29141	103.52078	-640.21328	861.04652	77.38014	-403.34767	934.58247	58.70249	-454.95416	787.45691	1574.40663	-521.51095	478.36166	1555.84432	-549.58902	594.99031	1510.41001	-462.99199	635.63214	1577.60382	-580.16869	760.18491	1526.37952	-444.43932	821.29700	1505.06123	-581.38893	506.71038	1511.69924	-477.94741	454.63859	1502.71737	-605.49084	345.55192	1518.70422	-533.13036	322.14754	1466.85328	-559.79653	265.69087	1491.32792	-509.27025	185.83223	1481.20183	-480.22750	208.95699	1393.24110	-476.26621	909.92744	1523.00850	-512.24222	943.41584	1441.67682	-522.81869	1008.25277	1475.43237	-463.14471	1073.55537	1455.97774	-434.87980	1041.41533	1370.61898	-424.26868	196.22638	1500.33255	-390.31357	200.30588	1482.63250	-206.72881	132.24467	1497.82223	-226.22683	1078.84515	1475.98361	-346.16051	1043.42464	1461.47449	-163.34404	1114.99274	1465.82702	-167.99398	551.80666	946.22764	-509.02740	753.54052	934.43065	-493.19362	
351	3.51000	770.80109	1032.02437	-410.16157	512.07149	1033.75104	-429.09869	702.67185	1086.78084	-585.62369	608.43621	1084.95497	-596.56077	443.36187	871.37018	-496.35700	434.16486	770.99901	-466.57002	437.68376	637.81202	-540.27931	431.71479	520.43894	-520.63326	548.33011	511.92904	-493.24384	842.27123	896.88594	-508.07193	851.33230	766.79174	-457.71537	846.63221	652.81599	-544.08159	850.92891	492.34424	-548.51046	736.13762	474.72720	-526.56360	452.45428	368.92882	-490.28074	402.75087	276.97318	-550.87581	448.66020	193.99280	-519.15794	399.88864	122.68200	-578.09294	486.94757	128.60095	-540.88781	830.08496	364.56358	-509.81086	871.55943	313.01300	-558.51089	835.93788	226.24706	-527.97484	789.32672	133.89162	-542.51342	874.50181	127.29908	-579.34206	455.33399	104.42513	-642.23595	422.97839	78.38167	-407.93282	351.93160	58.82679	-437.39487	803.30926	103.51819	-640.19512	861.04796	77.37004	-403.33951	934.58844	58.72628	-455.00674	787.51787	1574.39290	-521.54165	478.37512	1555.84455	-549.59293	595.02960	1510.40998	-463.01298	635.67488	1577.59846	-580.18916	760.22040	1526.37916	-444.44639	821.34442	1505.06357	-581.39208	506.74344	1511.70602	-477.95437	454.68378	1502.71658	-605.49695	345.61335	1518.73189	-533.16607	322.19622	1466.83007	-559.81041	265.72903	1491.30518	-509.27637	185.90241	1481.16696	-480.23545	209.01997	1393.18425	-476.27295	909.99764	1522.98322	-512.31432	943.45997	1441.69111	-522.82189	1008.29358	1475.44113	-463.16291	1073.60370	1455.98792	-434.89977	1041.45733	1370.61799	-424.28338	196.26535	1500.33021	-390.30306	200.36863	1482.62033	-206.71144	132.32882	1497.79657	-226.23096	1078.87633	1475.98917	-346.17205	1043.44971	1461.45007	-163.35110	1114.99989	1465.81510	-168.00466	551.85887	946.22668	-509.03516	753.59032	934.43945	-493.16373	
352	3.52000	770.83317	1032.05315	-410.11628	512.10468	1033.75024	-429.11690	702.70634	1086.78641	-585.60490	608.48399	1084.94807	-596.57167	443.41985	871.36419	-496.36834	434.23024	770.98865	-466.58535	437.70564	637.81247	-540.30333	431.59977	520.64253	-520.72630	548.37490	511.88967	-493.16225	842.31256	896.89227	-508.06865	851.37895	766.79012	-457.70717	846.64622	652.81409	-544.06276	850.94707	492.34207	-548.50061	736.16492	474.72770	-526.56745	452.48071	368.92883	-490.30230	402.74464	276.96579	-550.89133	448.69985	193.98991	-519.18848	399.89800	122.67448	-578.10073	486.94808	128.59705	-540.88337	830.09272	364.56312	-509.80588	871.57176	313.00702	-558.50935	835.93935	226.30211	-527.96069	789.33195	133.88991	-542.50339	874.50372	127.29530	-579.34413	455.33311	104.41630	-642.24246	422.98507	78.38980	-407.93767	351.95010	58.82800	-437.42077	803.30909	103.51461	-640.19074	861.04675	77.36564	-403.33164	934.59040	58.73294	-455.02291	787.58436	1574.36896	-521.58333	478.40273	1555.84428	-549.60567	595.07218	1510.41096	-463.03816	635.71132	1577.59688	-580.20744	760.25584	1526.37805	-444.45334	821.38959	1505.06743	-581.39755	506.77441	1511.70245	-477.97402	454.72392	1502.71952	-605.50884	345.68040	1518.72304	-533.18186	322.22609	1466.82367	-559.81161	265.75980	1491.28731	-509.28836	185.96501	1481.14500	-480.26015	209.06665	1393.15225	-476.27655	910.05741	1522.96548	-512.36177	943.50505	1441.70281	-522.83571	1008.33307	1475.45120	-463.17137	1073.63994	1455.99366	-434.90343	1041.49869	1370.61945	-424.29320	196.30364	1500.32330	-390.30440	200.42050	1482.60197	-206.71864	132.42750	1497.77767	-226.23062	1078.90363	1475.99305	-346.17426	1043.46277	1461.42334	-163.35263	1115.00998	1465.80621	-168.01356	551.91321	946.21781	-509.02253	753.64517	934.46309	-493.13080	
353	3.53000	770.86533	1032.08364	-410.07423	512.13911	1033.74160	-429.14046	702.72754	1086.78731	-585.57836	608.51338	1084.94369	-596.57391	443.47041	871.34317	-496.39270	434.29070	770.96975	-466.60322	437.69877	637.81169	-540.30902	431.46551	520.83558	-520.85196	548.41768	511.85811	-493.10500	842.34149	896.89726	-508.05593	851.40920	766.78874	-457.68640	846.65573	652.81142	-544.05160	850.96234	492.33764	-548.48884	736.18718	474.73110	-526.57042	452.50528	368.92577	-490.32572	402.75206	276.96798	-550.91640	448.74509	193.98451	-519.22898	399.90900	122.66968	-578.10960	486.94864	128.59346	-540.87753	830.09708	364.56238	-509.80093	871.58152	313.00127	-558.50134	835.93998	226.40448	-527.94428	789.33966	133.88554	-542.49535	874.51425	127.29262	-579.35113	455.26764	104.35610	-642.15276	422.99602	78.40241	-407.94887	351.95314	58.83240	-437.42081	803.29808	103.51361	-640.20229	861.04640	77.37112	-403.33632	934.58743	58.71954	-454.99401	787.63735	1574.35893	-521.60952	478.43767	1555.84196	-549.62952	595.11669	1510.42063	-463.06457	635.73959	1577.59764	-580.21941	760.28958	1526.38195	-444.46317	821.43241	1505.06448	-581.41222	506.80236	1511.69251	-477.99776	454.75301	1502.72403	-605.53081	345.75208	1518.70529	-533.18900	322.24165	1466.82796	-559.80503	265.79203	1491.27776	-509.30597	186.01578	1481.12629	-480.30059	209.10278	1393.14149	-476.28016	910.09726	1522.96179	-512.37291	943.55124	1441.71288	-522.85709	1008.36883	1475.45949	-463.16732	1073.66539	1455.99420	-434.88927	1041.53547	1370.62115	-424.29338	196.34683	1500.31639	-390.31159	200.46360	1482.56535	-206.76722	132.52146	1497.75812	-226.22576	1078.92749	1475.98783	-346.17698	1043.46206	1461.40280	-163.34798	1115.02141	1465.81276	-167.99253	551.96701	946.20142	-509.00629	753.70144	934.49155	-493.10889	
354	3.54000	770.89351	1032.10188	-410.05043	512.17077	1033.72548	-429.16661	702.74214	1086.78564	-585.55602	608.52639	1084.94030	-596.56890	443.51295	871.31449	-496.41976	434.34395	770.94813	-466.62231	437.67979	637.80989	-540.30513	431.38811	520.91769	-520.91872	548.45117	511.84083	-493.11298	842.36014	896.89654	-508.03564	851.42008	766.78706	-457.66205	846.66279	652.80539	-544.03491	850.97507	492.33186	-548.47720	736.20256	474.73423	-526.56746	452.52397	368.92143	-490.34631	402.78882	276.98653	-550.93976	448.77185	193.98012	-519.25974	399.91804	122.66823	-578.12017	486.95226	128.58814	-540.87812	830.10033	364.56097	-509.79472	871.58765	312.99619	-558.48854	835.94209	226.45343	-527.93836	789.34491	133.88192	-542.49214	874.53322	127.29435	-579.36562	455.17071	104.27341	-642.01927	423.00626	78.41372	-407.96073	351.93912	58.84015	-437.39691	803.28173	103.50937	-640.20597	861.04667	77.38239	-403.35270	934.58127	58.69416	-454.93865	787.66970	1574.36268	-521.62180	478.47074	1555.83797	-549.65300	595.15848	1510.43735	-463.09092	635.76035	1577.59858	-580.22744	760.32143	1526.39189	-444.47863	821.47026	1505.05361	-581.43223	506.83000	1511.68927	-478.02146	454.77390	1502.72889	-605.55758	345.81895	1518.72921	-533.22081	322.25035	1466.83557	-559.79910	265.82734	1491.27805	-509.32672	186.05806	1481.11112	-480.34625	209.14310	1393.13824	-476.29565	910.12232	1522.96742	-512.36631	943.59341	1441.72592	-522.87333	1008.39770	1475.46177	-463.15312	1073.68570	1455.98870	-434.86859	1041.56275	1370.61792	-424.28658	196.39295	1500.31803	-390.32174	200.50265	1482.52168	-206.84348	132.59233	1497.73925	-226.22645	1078.94664	1475.97401	-346.18476	1043.45242	1461.39834	-163.33768	1115.03071	1465.83276	-167.94466	552.01144	946.18205	-508.99927	753.74888	934.51255	-493.10677	
355	3.55000	770.91671	1032.10139	-410.04817	512.19427	1033.71080	-429.19124	702.75099	1086.78355	-585.54071	608.52573	1084.93703	-596.55664	443.54889	871.28942	-496.43737	434.39080	770.93473	-466.63164	437.66782	637.80550	-540.29407	431.38878	520.90622	-520.90887	548.47249	511.84218	-493.21875	842.37060	896.88997	-508.01048	851.41490	766.78296	-457.64037	846.67082	652.79553	-544.00620	850.98488	492.32653	-548.46645	736.21348	474.73289	-526.56168	452.53666	368.91776	-490.35957	402.83864	277.00927	-550.94883	448.77040	193.97999	-519.26804	399.92085	122.66843	-578.13072	486.95829	128.57998	-540.88751	830.10385	364.55904	-509.78685	871.58997	312.99156	-558.47568	835.94349	226.42213	-527.95001	789.34488	133.88380	-542.49967	874.55329	127.29992	-579.38631	455.07323	104.19382	-641.88930	423.01174	78.41810	-407.96567	351.91816	58.84925	-437.37179	803.26278	103.49683	-640.18485	861.04440	77.39069	-403.36655	934.57495	58.67365	-454.89668	787.69192	1574.36603	-521.63564	478.50380	1555.83257	-549.66420	595.19296	1510.45280	-463.12118	635.77835	1577.59848	-580.24012	760.35294	1526.40377	-444.49974	821.50121	1505.04117	-581.44859	506.86068	1511.70322	-478.04693	454.79142	1502.73165	-605.57868	345.86972	1518.80893	-533.29342	322.25722	1466.84417	-559.80110	265.85940	1491.28813	-509.34657	186.09336	1481.10864	-480.38399	209.19447	1393.13582	-476.33133	910.13924	1522.98025	-512.34980	943.62444	1441.74052	-522.87475	1008.41888	1475.45365	-463.13626	1073.70577	1455.97467	-434.85571	1041.57841	1370.60474	-424.28132	196.43506	1500.32951	-390.33627	200.54065	1482.49950	-206.90873	132.63247	1497.73293	-226.23878	1078.96022	1475.95825	-346.19152	1043.44235	1461.41200	-163.32657	1115.03702	1465.84748	-167.90842	552.03781	946.16738	-509.00218	753.77784	934.51951	-493.12385	
